<svg width="128" height="55" viewBox="0 0 128 55" fill="none" xmlns="http://www.w3.org/2000/svg">
<g clip-path="url(#clip0_2_734)">
<circle cx="21.4021" cy="27.4021" r="20.026" transform="rotate(-25.7323 21.4021 27.4021)" fill="url(#paint0_radial_2_734)" stroke="url(#paint1_radial_2_734)"/>
<path d="M79.0782 13V12.5H78.5782H75.0356H74.5356V13V34.6701L58.8917 12.7099L58.7422 12.5H58.4845H55H54.5V13V42V42.5H55H58.6006H59.1006V42V20.3874L74.6863 42.2899L74.8358 42.5H75.0937H78.5782H79.0782V42V13ZM84.0565 42V42.5H84.5565H88.1571H88.6571V42V29.5293H101.05H101.55V29.0293V25.9141V25.4141H101.05H88.6571V16.6152H102.385H102.885V16.1152V13V12.5H102.385H84.5565H84.0565V13V42ZM105.199 16.1152V16.6152H105.699H114.549V42V42.5H115.049H118.65H119.15V42V16.6152H128H128.5V16.1152V13V12.5H128H105.699H105.199V13V16.1152Z" fill="white" stroke="black"/>
</g>
<defs>
<radialGradient id="paint0_radial_2_734" cx="0" cy="0" r="1" gradientUnits="userSpaceOnUse" gradientTransform="translate(21.7179 8.77089) rotate(90.4621) scale(39.1585)">
<stop stop-color="#DEA8FF"/>
<stop offset="0.445112" stop-color="#9D6AD9"/>
<stop offset="1" stop-color="#7A2BF6"/>
</radialGradient>
<radialGradient id="paint1_radial_2_734" cx="0" cy="0" r="1" gradientUnits="userSpaceOnUse" gradientTransform="translate(21.8389 10.37) rotate(80.1061) scale(38.1251)">
<stop stop-color="#E2C1FF" stop-opacity="0.53"/>
<stop offset="1" stop-color="#853DF2" stop-opacity="0.55"/>
</radialGradient>
<clipPath id="clip0_2_734">
<rect width="128" height="55" fill="white"/>
</clipPath>
</defs>
</svg>
